<svg width="262" height="326" viewBox="0 0 262 326" fill="none" xmlns="http://www.w3.org/2000/svg">
<g clip-path="url(#clip0_6969_3018)">
<path d="M22.3057 285.013C19.4733 286.075 18.0571 286.429 15.9328 286.429C10.976 286.429 7.43547 284.659 5.31115 282.181C2.47872 279.348 1.0625 275.808 1.0625 271.913C1.0625 268.019 2.83277 264.124 5.31115 261.646C6.72737 260.229 8.14358 259.167 10.2679 258.459C12.0382 257.751 13.8084 257.397 15.9328 257.397C17.349 257.397 19.4733 257.751 22.3057 258.813V267.311C19.8274 264.478 17.349 264.124 15.9328 264.124C13.8084 264.124 12.3922 264.832 10.976 265.894C9.20574 267.311 8.49764 269.789 8.49764 271.559C8.49764 273.329 9.20574 275.454 10.622 276.87C11.6841 277.932 13.8084 278.64 15.5787 278.64C16.6409 278.64 19.4733 278.64 21.9517 275.808L22.3057 285.013ZM38.2382 258.105C40.3625 258.105 42.8409 258.459 44.9652 260.583C46.3814 262.354 47.4436 264.478 47.4436 266.956C47.4436 269.435 46.7355 271.559 45.3193 272.621C44.2571 273.684 42.8409 274.392 41.4247 274.392L49.922 285.721H41.0706L34.3436 275.1V285.721H27.2625V258.105H38.2382ZM33.9895 270.497H35.4057C36.4679 270.497 37.8841 270.143 38.9463 269.435C39.6544 268.727 40.0084 268.019 40.0084 266.956C40.0084 266.248 39.6544 265.186 38.9463 264.478C38.2382 263.77 37.176 263.416 35.4057 263.416H33.9895V270.497ZM57.3571 272.267L47.4436 257.751H55.9409L61.2517 265.186L66.2085 257.751H75.0598L64.7922 272.267V285.721H57.7111L57.3571 272.267ZM84.2652 276.516V285.721H77.1841V258.105H88.5139C90.9922 258.105 93.4706 258.459 95.5949 260.583C97.7193 262.708 98.0733 264.832 98.0733 267.311C98.0733 269.435 97.7193 272.267 95.5949 274.392C93.4706 276.516 90.9922 276.87 88.8679 276.87L84.2652 276.516ZM84.2652 270.851H86.7436C87.4517 270.851 88.8679 270.851 89.9301 270.143C90.6382 269.435 90.9922 268.373 90.9922 267.665C90.9922 266.956 90.9922 265.894 90.2841 265.186C89.576 264.478 88.1598 264.124 87.0976 264.124H84.6193V270.851H84.2652ZM112.944 264.124V285.721H105.862V264.124H99.8436V258.105H118.608V264.124H112.944ZM146.933 282.181C144.1 285.013 140.206 286.429 135.957 286.429C131.708 286.429 127.814 285.013 124.981 282.181C122.149 279.348 120.733 275.454 120.733 271.913C120.733 268.373 122.149 264.478 124.981 261.646C127.814 258.813 131.708 257.397 135.957 257.397C140.206 257.397 144.1 258.813 146.933 261.646C149.765 264.478 151.181 268.373 151.181 271.913C151.181 275.454 149.765 279.348 146.933 282.181ZM130.646 266.602C129.23 268.019 128.522 270.143 128.522 271.913C128.522 272.975 128.876 273.684 129.23 274.746C129.584 275.808 130.292 276.516 131 277.224C132.417 278.64 134.187 279.348 136.665 279.348C139.144 279.348 140.914 278.64 142.33 277.224C143.746 275.808 144.454 274.038 144.454 271.913C144.454 270.851 144.1 269.789 143.746 269.081C143.392 268.019 142.684 267.311 141.976 266.602C140.56 265.186 138.435 264.478 136.311 264.478C134.187 264.478 132.062 265.186 130.646 266.602ZM32.9274 324.313L26.2003 325.375L23.722 322.543C21.2436 323.959 19.1193 324.313 16.6409 324.313C10.976 324.313 7.43547 322.189 5.31115 319.711C2.83277 316.878 1.41655 312.984 1.41655 309.797C1.41655 305.902 3.18682 302.008 5.6652 299.529C8.49763 296.697 12.3922 295.281 16.6409 295.281C20.5355 295.281 24.7841 296.697 27.6166 299.529C29.7409 302.008 31.8652 305.548 31.8652 310.151C31.8652 311.921 31.5111 314.046 30.803 315.816C30.0949 317.232 29.3868 318.648 28.3247 319.711L32.9274 324.313ZM21.2436 311.921L23.0138 314.046C23.722 312.983 24.4301 311.567 24.4301 309.797C24.4301 308.027 23.722 305.902 22.3057 304.486C20.8895 303.07 18.4111 302.362 16.6409 302.362C15.5787 302.362 14.5166 302.716 13.8084 303.07C12.7463 303.424 12.0382 304.132 11.3301 304.84C9.91385 306.256 9.20574 308.381 9.20574 310.505C9.20574 311.567 9.20574 312.275 9.5598 313.338C9.91385 314.046 10.2679 315.108 10.976 315.816C12.3922 317.232 14.5166 317.94 16.6409 317.94C17.349 317.94 18.0571 317.94 18.7652 317.586L14.1625 312.629L21.2436 311.921ZM43.549 295.989V312.275C43.549 313.338 43.549 315.108 44.9652 316.524C45.6733 317.232 47.0895 317.94 48.5057 317.94C49.922 317.94 50.9841 317.586 51.6922 316.878C53.4625 315.462 53.4625 313.338 53.4625 311.921V295.989H60.5436V311.921C60.5436 314.754 60.5436 317.94 57.3571 320.773C54.8787 323.251 52.0463 324.313 48.1517 324.313C43.903 324.313 40.7166 322.897 38.9463 321.127C36.4679 318.648 36.1138 315.108 36.1138 311.921V295.989H43.549ZM82.849 319.002H72.9355L71.1652 323.605H63.7301L74.3517 295.989H82.1409L92.4084 323.605H84.6193L82.849 319.002ZM81.0787 313.692L77.8922 304.84L74.7057 313.692H81.0787ZM95.5949 323.959V296.343H102.676L115.776 313.338V296.343H122.857V323.959H115.776L102.676 306.965V323.959H95.5949ZM139.144 302.362V323.959H132.062V302.362H126.044V296.343H145.163V302.362H139.144ZM155.43 295.989V323.605H148.349V295.989H155.43ZM191.544 324.313L184.817 325.375L182.338 322.543C179.86 323.959 177.735 324.313 175.257 324.313C169.592 324.313 166.052 322.189 163.927 319.711C161.449 316.878 160.033 312.984 160.033 309.797C160.033 305.902 161.803 302.008 164.281 299.529C167.114 296.697 171.008 295.281 175.257 295.281C179.152 295.281 183.4 296.697 186.233 299.529C188.711 301.654 190.481 305.548 190.481 309.797C190.481 311.567 190.127 313.692 189.419 315.462C188.711 316.878 188.003 318.294 186.941 319.356L191.544 324.313ZM179.86 311.921L181.63 314.046C182.338 312.983 183.046 311.567 183.046 309.797C183.046 308.027 182.338 305.902 180.922 304.486C179.506 303.07 177.027 302.362 175.257 302.362C174.195 302.362 173.133 302.716 172.425 303.07C171.363 303.424 170.654 304.132 169.946 304.84C168.53 306.256 167.822 308.381 167.822 310.505C167.822 311.567 167.822 312.275 168.176 313.338C168.53 314.046 168.884 315.108 169.592 315.816C171.008 317.232 173.133 317.94 175.257 317.94C175.965 317.94 176.673 317.94 177.381 317.586L173.133 313.338L179.86 311.921ZM202.165 295.989V312.275C202.165 313.338 202.165 315.108 203.581 316.524C204.29 317.232 205.706 317.94 207.122 317.94C208.538 317.94 209.6 317.586 210.308 316.878C212.079 315.462 212.079 313.338 212.079 311.921V295.989H219.16V311.921C219.16 314.754 219.16 317.94 215.973 320.773C213.495 323.251 210.663 324.313 206.768 324.313C202.519 324.313 199.333 322.897 197.562 321.127C195.084 318.648 194.73 315.108 194.73 311.921V295.989H202.165ZM240.403 302.362H231.906V306.965H240.049V312.984H231.906V317.94H240.403V323.959H224.825V296.343H240.403V302.362ZM261.646 208.892L208.538 262.354L183.754 237.57L173.841 227.656H113.298V151.889H150.827V76.4754H113.298V0.707825H225.887V173.132L253.149 200.394L261.646 208.892Z" fill="black"/>
<path d="M75.7675 76.4754V151.889H113.297V227.302H0.708008V0.707825H113.297V76.4754H75.7675Z" fill="black"/>
<path d="M135.957 90.992H90.6377V136.665H135.957V90.992Z" fill="black"/>
</g>
<defs>
<clipPath id="clip0_6969_3018">
<rect width="262" height="325.73" fill="white"/>
</clipPath>
</defs>
</svg>
