<svg width="410" height="100" viewBox="0 0 410 100" fill="none" xmlns="http://www.w3.org/2000/svg">
<g clip-path="url(#clip0_6969_2967)">
<path d="M342.196 73.9586C357.706 73.9586 366.894 64.2481 366.894 48.1145C366.894 32.0483 357.706 22.3715 342.55 22.3715H324.967V73.9586H342.196ZM334.171 65.8834V30.4636H342.027C352.362 30.4636 357.74 36.3135 357.74 48.1145C357.74 59.9829 352.362 65.8834 341.758 65.8834H334.171ZM372.053 73.9586H392.637C404.286 73.9586 410.001 67.9401 410.001 59.9155C410.001 52.11 404.539 47.5244 399.127 47.2378V46.7321C404.084 45.552 408.012 42.0285 408.012 35.7572C408.012 28.0697 402.55 22.3715 391.524 22.3715H372.053V73.9586ZM381.257 66.1531V51.0479H391.423C397.104 51.0479 400.628 54.5713 400.628 59.1737C400.628 63.2872 397.846 66.1531 391.17 66.1531H381.257ZM381.257 44.3213V30.0927H390.58C395.992 30.0927 398.807 32.9755 398.807 36.971C398.807 41.4891 395.166 44.3213 390.378 44.3213H381.257ZM175.313 48.2325C175.313 31.8965 165.485 22.2703 152.419 22.2703C139.337 22.2703 129.525 31.8965 129.525 48.2325C129.525 64.5347 139.337 74.1778 152.419 74.1778C155.589 74.1778 158.556 73.6046 161.253 72.5257L165.367 77.8192H174.116L167.204 68.8505C172.211 64.3998 175.313 57.3698 175.313 48.2325ZM149.351 56.51L156.094 65.4956C154.931 65.816 153.701 65.9677 152.419 65.9677C144.31 65.9677 138.595 59.7132 138.595 48.2325C138.595 36.735 144.31 30.4804 152.419 30.4804C160.545 30.4804 166.243 36.735 166.243 48.2325C166.243 54.4364 164.574 59.1062 161.759 62.0902L157.527 56.51H149.351ZM204.377 56.8809C204.377 62.6466 200.314 65.5125 196.42 65.5125C192.189 65.5125 189.373 62.478 189.373 57.6564V34.9142H180.573V59.0388C180.573 68.1424 185.597 73.5709 192.947 73.5709C198.544 73.5709 202.557 70.3172 204.259 66.0688H204.647V73.5709H213.178V34.9142H204.377V56.8809ZM236.527 74.2284C245.242 74.2284 251.227 69.9126 252.778 63.3209L244.551 62.3768C243.371 65.5968 240.438 67.2658 236.645 67.2658C230.963 67.2658 227.187 63.4726 227.12 56.9821H253.149V54.251C253.149 40.9496 245.259 35.0997 236.071 35.0997C225.366 35.0997 218.387 43.0738 218.387 54.7567C218.387 66.6589 225.265 74.2284 236.527 74.2284ZM227.136 50.9636C227.406 46.1252 230.93 42.0623 236.189 42.0623C241.247 42.0623 244.652 45.8048 244.703 50.9636H227.136ZM288.923 45.6026C287.709 39.1963 282.652 35.0997 273.902 35.0997C264.9 35.0997 258.763 39.584 258.797 46.5972C258.763 52.1268 262.118 55.7683 269.3 57.2855L275.672 58.6342C279.111 59.3929 280.713 60.809 280.713 62.95C280.713 65.5462 277.931 67.485 273.75 67.485C269.721 67.485 267.091 65.7148 266.333 62.3094L257.752 63.1523C258.847 70.098 264.613 74.2284 273.784 74.2284C283.124 74.2284 289.715 69.3225 289.732 62.1408C289.715 56.7292 286.276 53.4249 279.229 51.8739L272.857 50.4915C269.064 49.6317 267.546 48.2999 267.58 46.1083C267.546 43.5458 270.345 41.7588 274.02 41.7588C278.083 41.7588 280.224 44.001 280.898 46.4961L288.923 45.6026ZM315.745 35.5886H308.361V26.5187H299.561V35.5886H294.267V42.5006H299.561V63.5738C299.51 70.7049 304.618 74.1947 311.244 74.0092C313.739 73.9249 315.475 73.436 316.419 73.1157L314.936 66.1363C314.447 66.2543 313.452 66.4734 312.356 66.4734C310.148 66.4734 308.361 65.6979 308.361 62.0902V42.5006H315.745V35.5886Z" fill="black"/>
<mask id="mask0_6969_2967" style="mask-type:luminance" maskUnits="userSpaceOnUse" x="0" y="0" width="82" height="100">
<path d="M0.0673828 0.28672H81.9999V99.2127H0.0673828V0.28672Z" fill="white"/>
</mask>
<g mask="url(#mask0_6969_2967)">
<path d="M18.7129 49.6654C18.7129 32.5203 32.7055 18.7131 50.0698 18.7131C56.3412 18.7131 62.1237 20.4495 66.9453 23.6358L80.449 10.4524C72.0871 4.09675 61.4831 0.28672 50.0698 0.28672C22.4218 0.28672 0.0673828 22.3546 0.0673828 49.6654C0.0673828 76.9931 22.4218 99.061 50.0698 99.061V80.6346C32.7055 80.6346 18.7129 66.8274 18.7129 49.6654Z" fill="black"/>
</g>
<path d="M81.4107 49.6655H100.056C100.056 36.6507 94.9144 24.7486 86.5525 15.8473L73.3691 28.8789C78.3593 34.4254 81.4107 41.7251 81.4107 49.6655Z" fill="black"/>
<mask id="mask1_6969_2967" style="mask-type:luminance" maskUnits="userSpaceOnUse" x="34" y="47" width="80" height="53">
<path d="M34.5264 47.4736H113.728V99.2125H34.5264V47.4736Z" fill="white"/>
</mask>
<g mask="url(#mask1_6969_2967)">
<path d="M65.343 51.267H37.8467L86.3993 99.2127L113.727 99.061L65.343 51.267Z" fill="black"/>
</g>
<mask id="mask2_6969_2967" style="mask-type:luminance" maskUnits="userSpaceOnUse" x="0" y="0" width="114" height="100">
<path d="M0.0673828 0.28672H113.728V99.2127H0.0673828V0.28672Z" fill="white"/>
</mask>
<g mask="url(#mask2_6969_2967)">
<mask id="mask3_6969_2967" style="mask-type:luminance" maskUnits="userSpaceOnUse" x="0" y="0" width="411" height="100">
<path d="M0.00195312 -2.28882e-05H410.002V99.2631H0.00195312V-2.28882e-05Z" fill="black" fill-opacity="0.6"/>
</mask>
<g mask="url(#mask3_6969_2967)">
<mask id="mask4_6969_2967" style="mask-type:luminance" maskUnits="userSpaceOnUse" x="0" y="0" width="411" height="100">
<path d="M0.00195312 -2.28882e-05H410.002V99.2631H0.00195312V-2.28882e-05Z" fill="white"/>
</mask>
<g mask="url(#mask4_6969_2967)">
<path d="M6.65981 25.0685C-5.39405 59.6791 30.6158 74.1269 30.6158 74.1269C26.7552 71.2778 21.9337 64.6018 20.4838 59.8308C17.4324 49.9854 18.3934 42.2136 23.3835 33.6326" fill="black"/>
</g>
</g>
</g>
</g>
<defs>
<clipPath id="clip0_6969_2967">
<rect width="410" height="99.2632" fill="white"/>
</clipPath>
</defs>
</svg>
