<svg width="410" height="121" viewBox="0 0 410 121" fill="none" xmlns="http://www.w3.org/2000/svg">
<g clip-path="url(#clip0_6969_2993)">
<mask id="mask0_6969_2993" style="mask-type:luminance" maskUnits="userSpaceOnUse" x="0" y="2" width="411" height="117">
<path d="M410.001 2.07082H0.000976562V118.03H410.001V2.07082Z" fill="white"/>
</mask>
<g mask="url(#mask0_6969_2993)">
<path d="M248.474 34.3544C255.324 34.3544 261.303 35.5997 266.534 37.9704C271.642 40.4646 275.625 43.8301 278.364 48.0672C281.103 52.431 282.474 57.2889 282.474 63.0251V116.246H264.165V102.537C261.923 106.651 258.81 110.017 254.95 112.634C249.842 116.123 243.991 117.993 237.388 117.993C231.906 117.993 227.052 116.994 223.066 115.125C219.079 113.255 215.966 110.514 213.851 107.148C211.732 103.659 210.611 99.6692 210.611 95.1815C210.611 88.2037 213.227 82.718 218.458 78.6043C223.689 74.4906 231.163 71.7498 240.875 70.254L257.189 67.8867L257.686 67.7629C259.928 67.3893 261.546 66.7648 262.543 65.8935C263.541 65.1455 264.038 64.0236 264.161 62.6512V61.5293C264.038 58.2873 262.667 55.5461 259.928 53.4295C257.062 51.1857 253.325 50.0637 248.344 50.0637C243.86 50.0637 240 51.0622 236.761 53.1789C233.521 55.2993 230.532 58.1639 227.92 62.027L213.224 53.9269L213.597 53.1789C215.715 49.3158 218.455 45.9505 221.691 43.2093C225.177 40.3411 229.164 38.0973 233.521 36.478C238.128 35.1057 242.986 34.3578 248.467 34.3578L248.474 34.3544ZM54.4343 5.93744L60.663 13.2896L63.6523 17.0291C69.2573 24.5081 73.3676 32.3611 75.9829 40.4611L77.104 44.5747C79.8431 55.6662 79.4696 66.511 76.1064 76.9817C72.7435 87.4524 66.3914 96.8008 57.0496 104.65C47.7083 112.5 38.4935 116.617 29.4022 116.741C20.4343 116.991 12.9611 113.499 7.10933 106.52C0.259997 98.2934 -1.60831 89.4457 1.38098 79.7229C4.37028 70.2502 10.4723 60.1539 19.6904 49.5593L20.3143 48.8118L41.6096 24.2577C44.3488 20.7686 46.9645 17.403 49.4564 14.0375C51.9487 10.7954 53.4433 8.17773 54.1908 6.18443L54.441 5.93396L54.4343 5.93744ZM167.397 6.4349H168.144C178.73 6.5584 186.95 9.303 192.929 14.9089C199.031 20.5182 202.02 28.1207 202.02 37.7165C202.02 43.9502 200.402 49.4326 197.163 54.0436C193.923 58.7814 189.316 62.02 183.337 64.0133C188.942 65.6326 193.052 68.5009 195.668 72.7376C198.284 76.9747 199.655 82.9578 199.778 90.6873C200.029 98.2901 200.275 103.649 200.526 106.768C200.9 109.882 201.523 112.5 202.768 114.621V116.367H182.343L182.22 115.993C181.473 114.247 180.849 111.756 180.475 108.641C180.101 105.275 179.727 99.916 179.477 92.5604C179.354 85.4554 177.859 80.347 175.117 77.2285C172.251 74.1134 167.644 72.4907 161.291 72.4907H134.017V116.116H114.714V6.43147L167.397 6.4349ZM317.595 36.8486V116.243H298.789V36.8486H317.595ZM379.493 34.3544C389.081 34.3544 396.554 37.346 401.909 43.4528C407.264 49.5593 409.879 57.6628 409.879 68.0068V116.367H391.196V68.8782C391.073 62.8947 389.702 58.4075 386.836 55.1689C383.97 51.9266 379.613 50.3073 373.758 50.3073C369.897 50.3073 366.535 51.179 363.669 53.0485C360.803 54.9183 358.437 57.4127 356.819 60.9014C355.201 64.2671 354.327 68.1303 354.327 72.4941V116.367H335.644V36.8451H354.327V46.3174L354.701 45.82C357.44 42.3309 360.803 39.5863 364.913 37.593C369.147 35.4728 374.004 34.351 379.486 34.351L379.493 34.3544ZM264.165 77.1051L264.042 77.2285C263.418 77.6025 262.424 77.9765 261.176 78.227C259.805 78.601 258.31 78.8511 256.942 79.2251L245.982 80.9715L245.235 81.0949C240.628 81.8429 237.014 83.0882 234.275 84.8346C231.409 86.7045 229.915 89.4457 229.915 93.0616C229.915 96.1767 231.159 98.6707 233.528 100.664C235.893 102.534 239.133 103.532 243.366 103.532C247.6 103.532 251.214 102.534 254.326 100.541C257.439 98.5473 259.931 95.8028 261.673 92.3136L262.296 90.9412C263.418 88.2 264.042 85.332 264.165 82.0934V77.1051ZM164.904 22.7619H133.894V56.7882H164.904C170.633 56.7882 174.993 55.4157 178.106 52.5511C181.219 49.6832 182.84 45.4461 182.84 39.7132C182.84 33.9804 181.222 29.7434 178.106 26.9988C174.867 24.2577 170.509 22.7619 164.904 22.7619ZM308.254 2.07097C311.617 2.07097 314.482 3.19282 316.848 5.56007C319.213 7.92726 320.461 10.7954 320.461 14.161C320.461 17.5265 319.216 20.1442 316.848 22.6349C314.482 25.0021 311.617 26.2509 308.254 26.2509C304.89 26.2509 302.152 25.0056 299.786 22.6349C297.421 20.2677 296.3 17.3996 296.3 14.161C296.3 10.6719 297.421 7.80376 299.786 5.56007C302.152 3.19282 304.894 2.07097 308.254 2.07097Z" fill="black"/>
</g>
</g>
<defs>
<clipPath id="clip0_6969_2993">
<rect width="410" height="120.101" fill="white"/>
</clipPath>
</defs>
</svg>
