<svg width="410" height="93" viewBox="0 0 410 93" fill="none" xmlns="http://www.w3.org/2000/svg">
<g clip-path="url(#clip0_6969_2999)">
<path d="M69.3155 81.2234C69.3155 81.2234 46.6119 32.6753 46.377 32.0357C47.2652 29.6974 47.9229 28.7656 47.9999 28.6004C49.1444 26.368 51.1304 24.9744 53.8125 24.9744C56.4946 24.9744 58.6984 26.4273 59.877 28.5665L59.1084 27.4228C59.1169 27.4483 59.8685 28.541 59.877 28.5579C59.9923 28.7656 80.9749 72.1881 80.9749 72.1881C81.0263 72.2939 80.1379 70.4471 80.1892 70.553C84.8401 80.2447 88.4234 87.7213 88.4446 87.7465C88.5599 88.0304 88.6284 88.3438 88.6284 88.6658C88.6284 89.9917 87.5905 91.0719 86.2879 91.148C86.2367 91.148 86.1854 91.1649 86.1213 91.1649C86.0701 91.1649 86.0146 91.148 85.9548 91.148H73.9666L65.6684 91.1142C69.3925 89.2461 69.7085 85.3406 69.7255 83.6971C69.7341 82.8245 69.5676 81.9942 69.2985 81.2234H69.3155Z" fill="black"/>
<path d="M43.4053 30.5285C43.4053 30.5285 43.431 30.4861 43.4396 30.4607C43.4223 30.4778 43.4138 30.503 43.4053 30.5285Z" fill="black"/>
<path d="M44.7195 29.0154L23.6386 73.9206L18.7442 73.8781C17.0786 73.7851 16.0835 73.3784 15.5582 73.1242C12.7566 71.7729 11.6931 67.5963 12.7053 64.1864C24.4159 40.1771 40.9697 5.43412 41.0723 5.22655C41.2047 4.95122 41.3412 4.67165 41.4736 4.39631C41.5891 4.15487 41.7086 3.92188 41.8239 3.6762C41.9179 3.47711 42.0161 3.27802 42.11 3.07894C42.1868 2.9222 42.268 2.757 42.345 2.60451C42.3621 2.56216 42.3877 2.51979 42.4047 2.4732C42.4389 2.39695 42.473 2.32494 42.52 2.2487C42.5371 2.20633 42.5627 2.16397 42.5798 2.11738C42.7806 1.69378 43.0965 1.37186 43.5065 1.13888C43.8909 0.922847 44.3265 0.816948 44.7623 0.816948C45.7318 0.816948 46.5518 1.36338 46.9703 2.15974L57.1605 23.2503C55.3453 22.2804 54.7432 22.1448 52.1251 22.1448C49.5071 22.1448 47.4059 23.712 46.2612 25.9276C46.1759 26.0927 45.39 27.643 44.8221 28.7996C44.805 28.8419 44.7794 28.8842 44.7623 28.9308L44.7536 28.9393V28.9477C44.7451 28.9731 44.728 28.9902 44.7195 29.0154ZM44.6939 29.0663C44.6768 29.0918 44.6683 29.1172 44.6597 29.1341C44.6683 29.1172 44.6853 29.0918 44.6939 29.0663Z" fill="black"/>
<path d="M21.6157 76.4539H63.9824L66.2844 81.3252L66.2759 81.3421C66.545 82.113 66.703 82.9349 66.703 83.799C66.703 87.8908 63.44 91.2415 59.3144 91.2415H2.67453C2.62327 91.2415 2.57203 91.2584 2.50795 91.2584C2.45671 91.2584 2.40118 91.25 2.34139 91.2415C1.0516 91.1568 0.0223307 90.1064 0.000976562 88.8101C0.00951823 88.594 0.0351433 88.378 0.0778517 88.162C0.103477 88.0604 0.137643 87.963 0.176082 87.8612C0.184623 87.8358 4.53661 78.915 10.3492 66.9951C9.34556 70.4049 10.9343 74.1326 14.2656 75.7338C15.0514 76.1066 15.8629 76.331 16.6829 76.4242L17.0757 76.4666C17.2851 76.4751 17.4857 76.4751 17.6951 76.4751L21.6115 76.4497L21.6157 76.4539Z" fill="black"/>
<path d="M111.554 65.665C112.216 65.1101 113.211 65.1525 113.788 65.7879C115.838 68.0117 118.78 69.7866 122.026 69.7866C126.267 69.7866 128.718 67.9016 128.718 64.7925C128.718 61.6832 126.694 59.6797 122.393 57.7904L118.955 56.3291C112.387 53.4656 109.132 49.3271 109.132 43.7187C109.132 36.7803 115.457 32.2689 122.09 32.2689C126.574 32.2689 130.23 33.6203 133.233 36.5853C133.861 37.208 133.852 38.2205 133.241 38.8515L130.606 41.5584C129.978 42.2065 128.923 42.2234 128.279 41.5838C126.438 39.7666 124.64 38.9618 122.03 38.9618C119.079 38.9618 116.265 40.6646 116.265 43.6509C116.265 46.4551 118.229 48.4629 122.59 50.2885L125.968 51.8136C131.926 54.3763 135.974 58.1463 135.974 64.1698C135.974 71.4725 130.512 76.4666 122.103 76.4666C116.179 76.4666 111.259 74.0945 108.317 70.3668C107.774 69.6849 107.907 68.6979 108.569 68.1431L111.562 65.6609L111.554 65.665Z" fill="black"/>
<path d="M156.321 33.8198L156.373 74.8574C156.373 75.7554 155.638 76.484 154.733 76.484H150.885C149.979 76.484 149.245 75.7554 149.245 74.8574L149.193 33.8198C149.193 32.9218 149.928 32.1932 150.833 32.1932H154.682C155.587 32.2017 156.321 32.9302 156.321 33.8198Z" fill="black"/>
<path d="M191.004 32.2775C196.607 32.2775 201.805 34.0184 205.695 37.3986C206.383 37.9959 206.438 39.0507 205.819 39.7199L203.418 42.325C202.834 42.9562 201.846 43.0536 201.194 42.4987C198.508 40.2665 194.753 38.966 191.004 38.966C182.411 38.966 175.961 45.7265 175.961 54.3678C175.961 63.0091 182.411 69.7697 191.004 69.7697C193.822 69.7697 196.692 69.1554 199.011 67.9609C199.562 67.6856 199.898 67.1221 199.898 66.508V57.4727H190.478C189.282 57.4727 188.487 56.2528 188.987 55.1726L190.627 51.606C190.897 51.0257 191.473 50.6528 192.118 50.6528H205.387C206.293 50.6528 207.027 51.3815 207.027 52.2795V68.6599C207.027 70.1889 206.259 71.6293 204.977 72.4764C201.12 75.0137 196.175 76.4751 191.007 76.4751C178.669 76.4751 168.722 66.851 168.722 54.372C168.713 41.8931 178.66 32.2689 190.999 32.2689" fill="black"/>
<path d="M225.205 76.4446H221.358C220.452 76.4446 219.718 75.716 219.718 74.818L219.683 33.9032C219.683 32.4755 221.413 31.7385 222.451 32.7255L249.43 60.2252L249.439 33.7803C249.439 32.8822 250.173 32.1537 251.079 32.1537H254.926C255.831 32.1537 256.566 32.8822 256.566 33.7803L256.583 74.8518C256.583 76.2792 254.854 77.0164 253.816 76.0294L226.786 48.2841L226.845 74.818C226.845 75.716 226.11 76.4446 225.205 76.4446Z" fill="black"/>
<path d="M328.407 33.8197L328.432 69.7235H345.149C346.054 69.7235 346.789 70.4519 346.789 71.3501L346.72 74.8615C346.72 75.7597 345.985 76.4881 345.08 76.4881H322.876C321.971 76.4881 321.236 75.7597 321.236 74.8615L321.288 33.8239C321.288 32.9217 322.023 32.1973 322.928 32.1973H326.776C327.673 32.1973 328.407 32.9259 328.407 33.8155" fill="black"/>
<path d="M294.276 59.942L288.3 44.9256L282.287 59.942H294.276ZM306.9 76.2036H302.911C302.283 76.2036 301.706 75.8394 301.436 75.276L297.32 66.3381H279.241L275.061 75.276C274.791 75.8394 274.224 76.2036 273.587 76.2036H269.662C268.466 76.2036 267.681 74.9584 268.198 73.895L286.827 33.2048C287.419 31.9932 289.155 31.9932 289.747 33.2048L308.351 73.895C308.885 74.9667 308.1 76.2036 306.904 76.2036" fill="black"/>
<path d="M389.074 58.7943L380.933 37.4368L372.76 58.7943H389.074ZM397.875 76.3861C397.248 76.3861 396.672 76.0303 396.402 75.4583L390.646 62.0644H371.205L366.293 75.4583C366.024 76.0303 365.447 76.3861 364.811 76.3861C363.606 76.3861 362.813 75.1407 363.33 74.0563L379.46 33.0187C380.053 31.7818 381.827 31.7818 382.419 33.0187L399.361 74.0563C399.878 75.1365 399.085 76.3861 397.88 76.3861" fill="black"/>
<path d="M410.005 33.7215L409.821 74.7592C409.821 75.6572 409.086 76.3858 408.181 76.3858H407.996C407.091 76.3858 406.356 75.6572 406.356 74.7592L406.541 33.7215C406.541 32.8236 407.275 32.0949 408.181 32.0949H408.365C409.27 32.0949 410.005 32.8236 410.005 33.7215Z" fill="black"/>
</g>
<defs>
<clipPath id="clip0_6969_2999">
<rect width="410" height="92.0408" fill="white"/>
</clipPath>
</defs>
</svg>
