<svg width="410" height="82" viewBox="0 0 410 82" fill="none" xmlns="http://www.w3.org/2000/svg">
<path fill-rule="evenodd" clip-rule="evenodd" d="M2.2087 0.252713C2.06468 0.404245 3.64565 3.37638 5.7222 6.85729C7.79926 10.3387 11.4462 16.5318 13.8273 20.6199C16.2084 24.7079 19.6684 30.6205 21.5159 33.759L24.8754 39.465L23.9551 41.1918C22.792 43.3722 5.61568 72.6696 1.14252 80.1016L0 81.9999L7.89204 81.9823L15.7846 81.9651L20.1279 74.4929C29.9845 57.5373 32.4058 53.4914 32.7725 53.3668C32.9846 53.2946 33.6553 54.1511 34.2633 55.27C34.8714 56.3885 38.6643 62.8607 42.6912 69.652L50.013 81.9999H57.7542H65.495L64.8378 80.9208C64.4761 80.3271 62.3651 76.713 60.1465 72.8889C57.928 69.0644 55.6546 65.1805 55.0945 64.2572C50.4697 56.6361 41.0065 40.0558 41.0065 39.5748C41.0065 39.0996 47.5288 27.7289 53.1171 18.462C57.6706 10.9108 63.561 0.725052 63.561 0.402327C63.561 0.181263 60.1638 0 56.0117 0H48.462L46.2963 3.60129C45.1053 5.58223 41.6617 11.5078 38.6442 16.7697C35.6267 22.0316 33.055 26.3383 32.9293 26.3402C32.8035 26.3426 31.6121 24.4628 30.2817 22.163C28.9508 19.8637 25.5237 13.9903 22.6653 9.1111L17.4684 0.239766L9.96955 0.108854C5.84565 0.0364444 2.35317 0.101661 2.2087 0.252713ZM81.3915 41V81.9999H104.709H128.025V75.5265V69.0526H111.795H95.5648V57.7837V46.5145L105.051 46.5157L114.538 46.5161L114.399 40.0419L114.26 33.5672H104.903H95.5463L95.6697 23.3772L95.7932 13.1871L108.823 13.0792C115.99 13.0198 122.214 12.9656 122.653 12.9594C123.093 12.9526 123.453 12.7297 123.453 12.4635C123.453 12.1974 124.351 9.76951 125.448 7.06876C126.545 4.36756 127.588 1.67261 127.765 1.07895L128.087 0H104.739H81.3915V41ZM149.056 41V81.9999H155.914H162.772V55.0531V28.1059L163.801 29.6025C164.366 30.4253 166.372 33.4896 168.258 36.4118C170.144 39.3341 176.802 49.546 183.054 59.1051C189.305 68.6643 195.169 77.7163 196.084 79.221L197.747 81.9569L203.119 81.9782L208.491 81.9999V41V0H201.637H194.783L194.665 26.7775L194.547 53.555L177.005 26.7775L159.463 0H154.26H149.056V41ZM232.113 0.319848C231.945 0.495358 231.808 18.9453 231.808 41.3198V81.9999H255.353H278.899V75.5265V69.0526H262.668H246.438L246.381 58.7427C246.35 53.072 246.298 48.0552 246.267 47.5936C246.214 46.8236 246.988 46.7437 255.696 46.6248L265.183 46.4948V40.0313V33.5672H255.801H246.42L246.543 23.3772L246.666 13.1871L260.087 13.0965C267.469 13.0471 273.569 12.9392 273.643 12.8567C274.142 12.3034 278.742 0.475214 278.541 0.264222C278.178 -0.117006 232.477 -0.0623392 232.113 0.319848ZM293.529 6.46311V12.9268L302.33 13.0567L311.131 13.1871L311.248 47.5936L311.365 81.9999H318.449H325.532V47.7457C325.532 14.536 325.559 13.4825 326.399 13.2029C326.876 13.0442 327.442 12.9473 327.657 12.9876C327.871 13.0279 330.847 13.0356 334.269 13.004L340.491 12.9473L342.653 7.55265C343.843 4.58576 344.924 1.67261 345.057 1.07895L345.298 0H319.414H293.529V6.46311ZM376.338 1.01229C376.103 1.6424 375.455 3.23684 374.897 4.55555C374.339 5.87427 373.417 8.14005 372.847 9.59063C371.693 12.5307 370.161 16.3329 359.131 43.6375C346.611 74.6302 344.351 80.2866 344.196 81.0159C344.071 81.6059 352.806 81.1336 359.582 81.0159C359.582 81.0159 362.096 80.7978 363.808 80.2775C368.25 78.9274 375.173 75.6294 378.659 73.203C382.898 70.2514 385.279 69.5437 388.385 69.5323H390.803L393.271 75.6462L395.739 81.7601L402.979 81.8925C408.707 81.9971 410.172 81.897 409.985 81.4128C409.663 80.5756 402.252 62.2539 399.844 56.345C398.77 53.7075 396.812 48.8523 395.493 45.5555C394.175 42.2587 392.512 38.1588 391.798 36.4444C391.084 34.7301 389.374 30.5222 387.997 27.0936C382.114 12.4391 377.138 0.260386 376.958 0.0709705C376.851 -0.0412398 376.572 0.382666 376.338 1.01229ZM381.036 45.4079C383.198 50.7334 385.184 56.0711 385.184 56.345C381.036 56.345 377.334 58.1941 373.908 60.5225C370.481 62.8513 365.205 65.7476 364.925 65.4536C364.816 65.3392 365.144 64.2141 365.654 62.953C369.56 53.3024 375.421 38.7481 376.021 37.2098C376.422 36.1807 376.83 35.4254 376.927 35.5314C377.025 35.6378 378.874 40.0826 381.036 45.4079Z" fill="black"/>
</svg>
